<svg xmlns="http://www.w3.org/2000/svg" xmlns:xlink="http://www.w3.org/1999/xlink" width="189" zoomAndPan="magnify" viewBox="0 0 141.12 141.750002" height="189" preserveAspectRatio="xMidYMid meet" version="1.0"><defs><g/><clipPath id="3b5cb8c252"><path d="M 15.578125 15.894531 L 124.554688 15.894531 L 124.554688 124.867188 L 15.578125 124.867188 Z M 15.578125 15.894531 " clip-rule="nonzero"/></clipPath><clipPath id="dbbbdcbd6e"><path d="M 70.066406 15.894531 C 39.972656 15.894531 15.578125 40.289062 15.578125 70.382812 C 15.578125 100.472656 39.972656 124.867188 70.066406 124.867188 C 100.15625 124.867188 124.554688 100.472656 124.554688 70.382812 C 124.554688 40.289062 100.15625 15.894531 70.066406 15.894531 Z M 70.066406 15.894531 " clip-rule="nonzero"/></clipPath></defs><g clip-path="url(#3b5cb8c252)"><g clip-path="url(#dbbbdcbd6e)"><path fill="#0c5c35" d="M 15.578125 15.894531 L 124.554688 15.894531 L 124.554688 124.867188 L 15.578125 124.867188 Z M 15.578125 15.894531 " fill-opacity="1" fill-rule="nonzero"/></g></g><g fill="#e9e6d6" fill-opacity="1"><g transform="translate(30.685392, 84.523963)"><g><path d="M 11.15625 0 C 11.101562 -0.195312 11.046875 -0.375 10.984375 -0.53125 C 10.929688 -0.695312 10.882812 -0.90625 10.84375 -1.15625 C 10.800781 -1.40625 10.769531 -1.722656 10.75 -2.109375 C 10.738281 -2.492188 10.734375 -2.972656 10.734375 -3.546875 L 10.734375 -8.09375 C 10.734375 -9.445312 10.5 -10.398438 10.03125 -10.953125 C 9.570312 -11.503906 8.816406 -11.78125 7.765625 -11.78125 L 6.203125 -11.78125 L 6.203125 0 L 1.65625 0 L 1.65625 -28.921875 L 8.515625 -28.921875 C 10.878906 -28.921875 12.59375 -28.367188 13.65625 -27.265625 C 14.71875 -26.160156 15.25 -24.492188 15.25 -22.265625 L 15.25 -20 C 15.25 -17.019531 14.253906 -15.0625 12.265625 -14.125 C 13.421875 -13.65625 14.210938 -12.890625 14.640625 -11.828125 C 15.066406 -10.773438 15.28125 -9.488281 15.28125 -7.96875 L 15.28125 -3.515625 C 15.28125 -2.796875 15.304688 -2.164062 15.359375 -1.625 C 15.421875 -1.09375 15.5625 -0.550781 15.78125 0 Z M 6.203125 -24.78125 L 6.203125 -15.90625 L 7.96875 -15.90625 C 8.820312 -15.90625 9.488281 -16.125 9.96875 -16.5625 C 10.457031 -17.007812 10.703125 -17.8125 10.703125 -18.96875 L 10.703125 -21.8125 C 10.703125 -22.863281 10.515625 -23.617188 10.140625 -24.078125 C 9.765625 -24.546875 9.179688 -24.78125 8.390625 -24.78125 Z M 6.203125 -24.78125 "/></g></g></g><g fill="#e9e6d6" fill-opacity="1"><g transform="translate(47.289749, 84.523963)"><g><path d="M 6.203125 -16.734375 L 12.4375 -16.734375 L 12.4375 -12.59375 L 6.203125 -12.59375 L 6.203125 -4.125 L 14.046875 -4.125 L 14.046875 0 L 1.65625 0 L 1.65625 -28.921875 L 14.046875 -28.921875 L 14.046875 -24.78125 L 6.203125 -24.78125 Z M 6.203125 -16.734375 "/></g></g></g><g fill="#e9e6d6" fill-opacity="1"><g transform="translate(62.489767, 84.523963)"><g><path d="M 14.25 -28.921875 L 14.25 -24.875 L 5.625 -4.125 L 14.25 -4.125 L 14.25 0 L 0.953125 0 L 0.953125 -4.046875 L 9.578125 -24.78125 L 1.359375 -24.78125 L 1.359375 -28.921875 Z M 14.25 -28.921875 "/></g></g></g><g fill="#e9e6d6" fill-opacity="1"><g transform="translate(77.772393, 84.523963)"><g><path d="M 14.25 -28.921875 L 14.25 -24.875 L 5.625 -4.125 L 14.25 -4.125 L 14.25 0 L 0.953125 0 L 0.953125 -4.046875 L 9.578125 -24.78125 L 1.359375 -24.78125 L 1.359375 -28.921875 Z M 14.25 -28.921875 "/></g></g></g><g fill="#e9e6d6" fill-opacity="1"><g transform="translate(93.05502, 84.523963)"><g><path d="M 5.90625 -9.578125 L 0.171875 -28.921875 L 4.921875 -28.921875 L 8.390625 -15.734375 L 11.859375 -28.921875 L 16.1875 -28.921875 L 10.453125 -9.578125 L 10.453125 0 L 5.90625 0 Z M 5.90625 -9.578125 "/></g></g></g></svg>